<?xml version="1.0" encoding="UTF-8"?>
<svg id="_圖層_1" data-name="圖層 1" xmlns="http://www.w3.org/2000/svg" viewBox="0 0 512 512">
  <defs>
    <style>
      .cls-1 {
        fill: #fff;
      }
    </style>
  </defs>
  <rect x="-10" y="-5.56" width="538.67" height="525.33"/>
  <path class="cls-1" d="M342.37,425.66l-15.03.11c-2.42.02-3.69-2.48-3.7-4.59l-.05-13.66c-15.14-1.5-29.05-8.02-38.96-19.41-1.35-1.55-3.42-4.56-1.75-6.3l12.38-12.9c1.55-1.62,4.39-1.34,5.85.49,10.8,13.55,29.1,19.49,45.62,14.02,7.43-2.46,11.64-9.23,10.97-16.71-.46-5.12-3.05-9.22-7.76-11.51-11.87-5.77-26.01-6.84-40.94-12.87-16.71-6.75-24.48-20.51-22.72-38.58,1.94-19.87,17.87-31.92,37.31-34.71l.12-14.54c.01-1.78,1.82-3.63,3.53-3.61l15.2.16c2.07.02,2.87,3.35,2.86,4.81l-.08,13.09c14.05,1.65,26.34,7.47,36.15,17.27.95.95,1.86,3.93.94,4.93l-10.92,11.75c-.98,1.06-2.22,2.32-3.42,2.54-1.47.26-3.38-.64-4.5-1.89-16.32-18.27-44.97-15.2-49.6-1.54-1.54,4.54-1.21,9.35,1.63,13.04,2.47,3.21,6.04,5.82,9.96,6.89l17.69,4.84,15.98,4.76c7.57,2.26,14.15,6.71,19.08,12.9,5.86,7.36,7.51,16.66,6.74,25.92-1.8,21.54-18.6,34.31-39.66,37.02l-.03,14.33c0,1.27-1.56,3.93-2.92,3.94Z"/>
  <path class="cls-1" d="M224.99,399.45l-.14,18.81c-.03,3.52-3.35,7.51-7.04,7.51l-48.32.09c-11.3.02-21.99-2.38-31.79-7.75-23.02-12.61-37.23-35.73-37.24-62.13v-56.61c0-4.36,3.71-7.8,7.76-7.79l21.33.04c3.16,0,6.71,3.68,6.71,7.17l.05,59.97c1.13,9.52,4.89,18.31,12.37,24.16,5.53,4.33,11.95,7.22,19.15,7.26l49.31.3c4.76.03,7.87,4.4,7.84,8.97Z"/>
  <path class="cls-1" d="M371.12,205.44l-.14-31.33c-.04-8.75-3.6-17.3-9.77-23.15-6.67-6.33-14.72-8.85-23.76-8.85l-68.5.04c-4.39,0-8.91-2.88-8.92-7.52l-.05-19.68c-.01-4.61,3.77-8.25,8.44-8.24l71.28.1c8.75.01,17.11,1.83,25.02,5.12,24.6,10.22,40.82,33.64,41.83,60.35l.11,34.22c.01,4.39-3.8,7.48-7.9,7.49l-19.16.03c-4.97,0-8.47-3.69-8.49-8.59Z"/>
  <path class="cls-1" d="M260.4,188.32c1.16,41.12-27.86,77.1-68.04,84.43-48.64,8.87-93.84-28.52-96.57-77.32-1.85-33.13,14.94-63.63,44.08-79.25,34.88-18.69,77.54-9.3,102,21.28,11.66,14.58,17.99,31.74,18.53,50.86ZM226.45,241.21c27.24-26.83,28.21-70.23,3.12-98.49-25.62-28.86-69.28-31.12-97.78-5.31-31.03,28.1-31.11,77.08-.27,105.46,26.98,24.82,68.43,24.45,94.94-1.66Z"/>
  <path class="cls-1" d="M174.97,253.46c-33.84-1.85-59.06-30.68-58.8-64.25.07-9.13,2.32-17.51,5.86-25.39,14.94-33.32,55.53-46.73,86.9-28.1,24.23,14.39,35.97,42.84,29.09,70.32-7.1,28.38-33.26,49.06-63.04,47.43ZM216.25,189.21c-.6-1.11-2.23-2.86-3.45-2.86l-28.61.09-.04-36.07c0-1.64-1.55-3.36-2.82-3.81l-7.93.02c-2.15,0-3.81,1.59-3.81,3.86v46.47c.01,1.94,1.83,4.02,3.94,4.02l39.22.05c1.41,0,3.38-2.05,3.39-3.23l.1-8.52Z"/>
</svg>